<?xml version="1.0" standalone="no"?>
<!DOCTYPE svg PUBLIC "-//W3C//DTD SVG 20010904//EN"
 "http://www.w3.org/TR/2001/REC-SVG-20010904/DTD/svg10.dtd">
<svg version="1.0" xmlns="http://www.w3.org/2000/svg"
 width="512.000000pt" height="512.000000pt" viewBox="0 0 512.000000 512.000000"
 preserveAspectRatio="xMidYMid meet">
<metadata>
Created by potrace 1.11, written by Peter Selinger 2001-2013
</metadata>
<g transform="translate(0.000000,512.000000) scale(0.100000,-0.100000)"
fill="#000000" stroke="none">
<path d="M0 2560 l0 -2560 2560 0 2560 0 0 2560 0 2560 -2560 0 -2560 0 0
-2560z m2367 1266 c72 -33 134 -94 166 -164 18 -39 22 -65 22 -152 0 -95 -3
-111 -28 -162 -37 -75 -87 -115 -190 -151 -19 -7 17 -58 271 -384 l64 -83
-184 0 -183 0 -135 210 -135 210 -3 -210 -2 -210 -150 0 -150 0 0 566 0 565
288 -3 287 -3 62 -29z m1098 -91 l0 -120 -122 -3 -123 -3 0 -304 0 -305 -145
0 -145 0 0 305 0 305 -120 0 -120 0 0 125 0 125 388 -2 387 -3 0 -120z m-1246
-1274 c270 -84 357 -339 208 -614 -23 -43 -104 -154 -181 -247 l-138 -170
-150 0 -150 0 30 38 c17 20 80 93 140 162 61 69 108 127 106 129 -2 2 -17 -2
-34 -9 -19 -8 -57 -11 -103 -8 -124 8 -219 76 -276 197 -23 49 -26 69 -26 156
0 89 3 107 29 162 45 99 141 177 256 209 71 19 218 17 289 -5z m902 2 c8 -8 2
-36 -29 -114 l-39 -103 -52 3 c-50 2 -54 0 -96 -41 -60 -60 -80 -129 -79 -268
2 -192 63 -300 171 -300 55 0 97 30 127 92 38 79 52 176 39 284 -10 87 -9 90
19 147 18 36 35 57 46 57 10 0 28 21 47 55 16 30 32 55 36 55 4 0 22 -30 42
-67 113 -215 96 -524 -38 -700 -82 -108 -180 -156 -320 -156 -117 -1 -184 24
-264 99 -111 102 -164 244 -164 439 0 265 114 459 306 521 51 16 230 15 248
-3z"/>
<path d="M2030 3489 l0 -142 62 7 c34 4 77 14 95 21 64 27 92 119 57 186 -21
41 -84 69 -156 69 l-58 0 0 -141z"/>
<path d="M2010 2264 c-72 -31 -110 -86 -110 -159 0 -53 16 -88 57 -127 55 -52
119 -61 190 -27 135 66 117 278 -28 319 -45 13 -67 12 -109 -6z"/>
</g>
</svg>
